<svg width="25" height="24" viewBox="0 0 25 24" fill="none" xmlns="http://www.w3.org/2000/svg">
<path opacity="0.4" d="M12.1199 2C9.49993 2 7.36993 4.13 7.36993 6.75C7.36993 9.32 9.37993 11.4 11.9999 11.49C12.0799 11.48 12.1599 11.48 12.2199 11.49C12.2399 11.49 12.2499 11.49 12.2699 11.49C12.2799 11.49 12.2799 11.49 12.2899 11.49C14.8499 11.4 16.8599 9.32 16.8699 6.75C16.8699 4.13 14.7399 2 12.1199 2Z" fill="#20BFB6"/>
<path opacity="0.4" d="M20.2891 18.9842C20.2454 18.503 20.117 17.9896 19.1808 17.9896H15.4591C14.5229 17.9896 14.3975 18.503 14.3508 18.9842L14.1875 20.7605C14.167 20.9821 14.24 21.2038 14.3916 21.37C14.5462 21.5392 14.765 21.6355 14.9983 21.6355H15.5466C16.0191 21.6355 16.1095 21.3642 16.1679 21.1863L16.2262 21.0113C16.2933 20.81 16.3108 20.7605 16.5733 20.7605H18.0666C18.3291 20.7605 18.3379 20.7896 18.4137 21.0113L18.472 21.1863C18.5304 21.3642 18.6208 21.6355 19.0933 21.6355H19.6416C19.872 21.6355 20.0937 21.5392 20.2483 21.37C20.4 21.2038 20.4729 20.9821 20.4525 20.7605L20.2891 18.9842Z" fill="#20BFB6"/>
<path d="M19.9449 17.1146H19.6533C19.6504 17.1146 19.6504 17.1146 19.6474 17.1146L19.5366 16.5867C19.4316 16.0763 19.2129 15.6067 18.3437 15.6067H17.5387H17.1012H16.2962C15.427 15.6067 15.2083 16.0763 15.1033 16.5867L14.9924 17.1146C14.9895 17.1146 14.9895 17.1146 14.9866 17.1146H14.6949C14.5754 17.1146 14.4762 17.2138 14.4762 17.3334C14.4762 17.4529 14.5754 17.5521 14.6949 17.5521H14.902L14.7795 18.1354C14.937 18.045 15.1558 17.9896 15.4591 17.9896H19.1808C19.4841 17.9896 19.7029 18.045 19.8604 18.1354L19.7379 17.5521H19.9449C20.0645 17.5521 20.1637 17.4529 20.1637 17.3334C20.1637 17.2138 20.0645 17.1146 19.9449 17.1146Z" fill="#20BFB6"/>
<path d="M16.4449 19.5938H15.5699C15.4504 19.5938 15.3512 19.4946 15.3512 19.375C15.3512 19.2554 15.4504 19.1562 15.5699 19.1562H16.4449C16.5645 19.1562 16.6637 19.2554 16.6637 19.375C16.6637 19.4946 16.5645 19.5938 16.4449 19.5938Z" fill="#20BFB6"/>
<path d="M19.0699 19.5938H18.1949C18.0754 19.5938 17.9762 19.4946 17.9762 19.375C17.9762 19.2554 18.0754 19.1562 18.1949 19.1562H19.0699C19.1895 19.1562 19.2887 19.2554 19.2887 19.375C19.2887 19.4946 19.1895 19.5938 19.0699 19.5938Z" fill="#20BFB6"/>
<path fill-rule="evenodd" clip-rule="evenodd" d="M7.04996 14.15C9.85996 12.29 14.41 12.29 17.2 14.15C17.611 14.4241 17.9614 14.73 18.2474 15.0607C18.1059 15.0216 17.9397 15 17.7438 15H16.849H16.3626H15.4678C14.5016 15 14.2584 15.5241 14.1417 16.0938L14.0185 16.683H14.012H13.6878C13.5549 16.683 13.4446 16.7937 13.4446 16.9272C13.4446 17.0606 13.5549 17.1713 13.6878 17.1713H13.918L13.7825 17.8189C13.4155 18.0266 13.3403 18.4063 13.3052 18.7697L13.1237 20.7522C13.101 20.9996 13.182 21.247 13.3506 21.4325C13.5225 21.6213 13.7656 21.7288 14.025 21.7288H14.5039C13.734 21.9096 12.927 22 12.12 22C10.28 22 8.43996 21.53 7.03996 20.59C5.77996 19.75 5.07996 18.61 5.07996 17.38C5.07996 16.15 5.77996 15 7.04996 14.15ZM14.5373 17.6596C14.5228 17.6596 14.5085 17.6597 14.4943 17.6599C14.5085 17.6597 14.5228 17.6596 14.5373 17.6596H18.6743C18.6888 17.6596 18.7031 17.6597 18.7173 17.6599C18.7031 17.6597 18.6888 17.6596 18.6743 17.6596H14.5373Z" fill="#20BFB6"/>
</svg>
