<svg width="25" height="24" viewBox="0 0 25 24" fill="none" xmlns="http://www.w3.org/2000/svg">
<path opacity="0.4" d="M23.6499 12.05C23.3599 11.76 22.8799 11.76 22.5899 12.05L22.1299 12.51V12C22.1299 6.48 17.6399 1.98999 12.1199 1.98999C9.06993 1.98999 6.21994 3.35999 4.30994 5.73999C4.04994 6.05999 4.09993 6.53998 4.42993 6.78998C4.74993 7.04998 5.22994 6.99998 5.47994 6.66998C7.10994 4.63998 9.52993 3.47998 12.1199 3.47998C16.8099 3.47998 20.6299 7.29999 20.6299 11.99V12.49L20.1699 12.03C19.8799 11.74 19.3999 11.74 19.1099 12.03C18.8199 12.32 18.8199 12.8 19.1099 13.09L20.8499 14.83C20.9199 14.9 20.9999 14.95 21.0899 14.99C21.1799 15.03 21.2799 15.05 21.3799 15.05C21.4799 15.05 21.5699 15.03 21.6699 14.99C21.7599 14.95 21.8399 14.9 21.9099 14.83L23.6499 13.09C23.9399 12.82 23.9399 12.34 23.6499 12.05Z" fill="#20BFB6"/>
<path opacity="0.4" d="M19.8099 17.2C19.4899 16.94 19.0099 16.99 18.7599 17.32C17.1299 19.35 14.7099 20.51 12.1199 20.51C7.42993 20.51 3.60993 16.69 3.60993 12V11.5L4.06993 11.96C4.21993 12.11 4.40994 12.18 4.59994 12.18C4.78994 12.18 4.97994 12.11 5.12994 11.96C5.41994 11.67 5.41994 11.19 5.12994 10.9L3.38993 9.15998C3.31993 9.08998 3.23993 9.04 3.14993 9C2.96993 8.92 2.75993 8.92 2.57993 9C2.48993 9.04 2.40994 9.08998 2.33994 9.15998L0.599939 10.9C0.309939 11.19 0.309939 11.67 0.599939 11.96C0.889939 12.25 1.36994 12.25 1.65994 11.96L2.11994 11.5V12C2.11994 17.52 6.60994 22.01 12.1299 22.01C15.1799 22.01 18.0299 20.64 19.9399 18.26C20.1899 17.94 20.1399 17.46 19.8099 17.2Z" fill="#20BFB6"/>
<path d="M7.14864 15.5V15.0091C7.14864 14.6491 7.25072 14.2924 7.45487 13.939C7.65902 13.579 7.90463 13.2583 8.19172 12.9769C8.48519 12.6889 8.77546 12.4173 9.06255 12.162C9.34963 11.9002 9.59525 11.6351 9.7994 11.3668C10.0035 11.0984 10.1056 10.8497 10.1056 10.6206C10.1056 10.3654 10.0291 10.1625 9.87596 10.0119C9.72284 9.85484 9.51231 9.7763 9.24437 9.7763C8.92952 9.7763 8.68511 9.89249 8.51114 10.1249C8.34404 10.3481 8.07851 10.5157 7.81145 10.4356L7.56727 10.3622C7.31544 10.2866 7.16046 10.0256 7.26851 9.78592C7.28781 9.7431 7.30846 9.70062 7.33046 9.65849C7.42616 9.47522 7.55375 9.29196 7.71324 9.1087C7.87912 8.92543 8.09922 8.77817 8.37354 8.6669C8.64787 8.55563 8.95728 8.5 9.30178 8.5C9.95251 8.5 10.4788 8.68981 10.8808 9.06943C11.2827 9.4425 11.4836 9.93993 11.4836 10.5617C11.4836 10.9021 11.3975 11.2326 11.2253 11.5533C11.053 11.874 10.8393 12.1554 10.5841 12.3976C10.3289 12.6332 10.0705 12.859 9.80897 13.075C9.55378 13.2845 9.32411 13.4972 9.11996 13.7132C8.91581 13.9226 8.79141 14.1157 8.74675 14.2924H11.0602C11.3363 14.2924 11.5602 14.5163 11.5602 14.7924V15C11.5602 15.2761 11.3363 15.5 11.0602 15.5H7.14864Z" fill="#20BFB6"/>
<path d="M12.5194 13.8997C12.2432 13.8997 12.0194 13.6759 12.0194 13.3997V12.9081L14.7658 8.62763H16.3352V12.7216H16.6199C16.8961 12.7216 17.1199 12.9455 17.1199 13.2216V13.3997C17.1199 13.6759 16.8961 13.8997 16.6199 13.8997H16.3352V15C16.3352 15.2761 16.1114 15.5 15.8352 15.5H15.5051C15.2289 15.5 15.0051 15.2761 15.0051 15V13.8997H12.5194ZM13.407 12.7216H15.0051V10.169L13.407 12.7216Z" fill="#20BFB6"/>
</svg>
