<svg width="25" height="24" viewBox="0 0 25 24" fill="none" xmlns="http://www.w3.org/2000/svg">
<path opacity="0.8" d="M13.0199 2.52L12.9899 2.59L10.0899 9.32H7.23993C6.55993 9.32 5.91993 9.45 5.31993 9.71L7.06993 5.53L7.10993 5.44L7.16993 5.28C7.19993 5.21 7.21993 5.15 7.24993 5.1C8.55993 2.07 10.0399 1.38 13.0199 2.52Z" fill="#20BFB6"/>
<path d="M18.4099 9.51999C17.9599 9.38999 17.4899 9.31999 16.9999 9.31999H10.0899L12.9899 2.58999L13.0199 2.51999C13.1599 2.56999 13.3099 2.63999 13.4599 2.68999L15.6699 3.61999C16.8999 4.12999 17.7599 4.65999 18.2899 5.29999C18.3799 5.41999 18.4599 5.52999 18.5399 5.65999C18.6299 5.79999 18.6999 5.93999 18.7399 6.08999C18.7799 6.17999 18.8099 6.25999 18.8299 6.34999C19.0899 7.19999 18.9299 8.22999 18.4099 9.51999Z" fill="#20BFB6"/>
<path opacity="0.4" d="M21.8799 14.2V16.15C21.8799 16.35 21.8699 16.55 21.8599 16.74C21.6699 20.24 19.7199 22 16.0199 22H8.21993C7.96993 22 7.73993 21.98 7.50993 21.95C4.32993 21.74 2.62993 20.04 2.40993 16.86C2.37993 16.62 2.35993 16.39 2.35993 16.15V14.2C2.35993 12.19 3.57993 10.46 5.31993 9.71001C5.91993 9.45001 6.55993 9.32001 7.23993 9.32001H16.9999C17.4899 9.32001 17.9599 9.39001 18.4099 9.52001C20.4099 10.13 21.8799 11.99 21.8799 14.2Z" fill="#20BFB6"/>
<path opacity="0.6" d="M7.06993 5.53L5.31993 9.71C3.57993 10.46 2.35993 12.19 2.35993 14.2V11.27C2.35993 8.43 4.37993 6.06 7.06993 5.53Z" fill="#20BFB6"/>
<path opacity="0.6" d="M21.8799 11.27V14.2C21.8799 11.99 20.4099 10.13 18.4099 9.52C18.9299 8.23 19.0899 7.2 18.8299 6.35C18.8099 6.26 18.7799 6.18 18.7399 6.09C20.6099 7.06 21.8799 9.03 21.8799 11.27Z" fill="#20BFB6"/>
</svg>
