<svg width="14" height="12" viewBox="0 0 14 12" fill="none" xmlns="http://www.w3.org/2000/svg">
<path fill-rule="evenodd" clip-rule="evenodd" d="M6.99996 10.3036L3.87378 11.9137C3.49962 12.1064 3.03684 11.9655 2.84013 11.5989C2.7618 11.453 2.73477 11.2858 2.76323 11.1232L3.36028 7.71286L0.831148 5.29762C0.528445 5.00855 0.522252 4.5338 0.817313 4.23725C0.934808 4.11915 1.08876 4.0423 1.25534 4.01859L4.75051 3.52102L6.3136 0.418164C6.50068 0.0467939 6.95963 -0.105682 7.33869 0.0776005C7.48964 0.150584 7.61182 0.270282 7.68632 0.418164L9.2494 3.52102L12.7446 4.01859C13.1629 4.07814 13.4527 4.45865 13.3919 4.86848C13.3677 5.03168 13.2893 5.18251 13.1688 5.29762L10.6396 7.71286L11.2367 11.1232C11.3081 11.5314 11.0283 11.919 10.6117 11.9891C10.4458 12.0169 10.2751 11.9905 10.1261 11.9137L6.99996 10.3036Z" fill="#FFBD3D"/>
</svg>
